<svg id="svg" version="1.1" width="430" height="175" xmlns="http://www.w3.org/2000/svg" xmlns:xlink="http://www.w3.org/1999/xlink" ><g id="svgg"><path id="path0" d="M90.012 1.456 C 83.014 5.253,86.087 26.977,93.621 26.977 C 101.206 26.977,105.821 22.135,104.343 15.729 C 103.745 13.140,103.256 9.043,103.256 6.627 C 103.256 0.026,97.086 -2.382,90.012 1.456 M306.188 15.027 C 300.311 17.936,295.938 24.128,287.041 42.137 C 282.693 50.938,278.776 58.767,278.336 59.535 C 277.897 60.302,275.514 65.015,273.039 70.007 C 270.565 74.999,268.425 78.968,268.284 78.827 C 268.143 78.685,267.156 66.856,266.092 52.541 C 265.028 38.225,263.850 23.791,263.474 20.465 L 262.791 14.419 258.140 14.166 C 246.213 13.519,246.180 13.700,249.798 59.558 C 251.549 81.756,252.080 94.321,251.864 108.509 C 251.522 131.053,252.205 132.220,263.165 127.835 C 267.775 125.990,267.708 126.198,268.487 111.438 L 269.137 99.125 275.002 91.439 C 278.227 87.211,281.562 82.407,282.412 80.763 L 283.958 77.774 285.818 81.399 C 286.841 83.393,289.246 89.252,291.163 94.420 C 293.080 99.587,296.105 107.142,297.884 111.210 C 299.664 115.277,301.845 120.806,302.731 123.497 C 304.596 129.162,306.674 130.643,311.797 129.956 C 321.425 128.664,322.022 125.030,315.295 108.659 C 312.707 102.362,309.389 94.020,307.922 90.122 C 306.454 86.225,302.664 77.870,299.499 71.557 L 293.746 60.079 298.402 51.202 C 300.963 46.320,304.811 38.303,306.954 33.386 C 309.337 27.915,312.468 22.596,315.021 19.677 C 317.316 17.053,318.932 14.483,318.612 13.965 C 317.601 12.329,310.393 12.945,306.188 15.027 M141.349 18.661 C 120.394 21.747,115.760 27.979,117.057 51.335 C 118.350 74.640,119.042 75.349,140.507 75.349 L 153.631 75.349 156.233 77.950 C 159.745 81.462,161.172 88.452,160.377 98.252 C 159.910 104.005,160.150 107.474,161.353 112.387 C 163.836 122.518,160.726 125.581,147.958 125.581 C 138.871 125.581,138.184 124.468,139.090 111.187 L 139.757 101.395 134.903 101.395 C 130.475 101.395,123.758 103.550,123.695 104.990 C 123.681 105.315,123.442 110.046,123.165 115.502 C 122.356 131.429,124.576 133.600,141.395 133.334 C 164.460 132.968,179.698 124.681,178.203 113.317 C 177.845 110.597,177.265 101.643,176.915 93.418 C 175.920 70.024,173.332 67.310,152.403 67.709 C 135.092 68.039,134.813 67.817,133.843 52.920 C 132.135 26.688,132.593 25.643,145.558 26.186 C 154.783 26.572,158.140 28.688,158.140 34.116 C 158.140 40.019,173.311 37.396,174.455 31.295 C 176.438 20.725,162.767 15.508,141.349 18.661 M187.997 20.504 L 183.902 22.362 184.729 36.530 C 185.184 44.322,185.586 64.302,185.622 80.930 C 185.665 100.313,186.092 113.333,186.812 117.209 C 187.430 120.535,187.825 124.512,187.689 126.047 L 187.442 128.837 192.568 128.744 C 195.424 128.692,199.066 127.941,200.794 127.047 L 203.896 125.443 203.334 116.443 C 203.024 111.492,202.527 101.712,202.228 94.710 L 201.685 81.978 204.796 81.404 C 206.507 81.089,211.674 80.958,216.279 81.113 L 224.651 81.395 225.378 85.581 C 225.778 87.884,226.268 98.539,226.466 109.260 C 226.878 131.464,226.994 131.795,233.953 130.716 C 243.476 129.239,245.374 121.352,242.803 93.953 C 242.299 88.581,241.473 77.698,240.969 69.767 C 237.914 21.740,238.322 23.656,231.187 23.809 C 221.674 24.013,221.032 26.795,223.424 57.424 C 224.734 74.195,225.992 72.236,213.396 73.046 L 203.071 73.710 202.470 61.739 C 202.139 55.154,201.594 42.756,201.258 34.186 L 200.647 18.605 196.370 18.625 C 194.018 18.636,190.250 19.482,187.997 20.504 M364.705 21.459 C 331.412 25.554,322.525 37.089,325.997 71.700 C 326.823 79.939,327.437 94.904,327.439 106.853 L 327.442 127.659 333.351 127.282 C 336.903 127.056,340.274 126.242,341.803 125.239 L 344.347 123.573 344.083 102.019 L 343.819 80.465 359.346 80.465 C 372.520 80.465,374.876 80.677,374.891 81.860 C 374.901 82.628,375.319 91.381,375.821 101.311 C 376.597 116.670,376.527 119.777,375.358 122.121 C 373.423 126.000,374.358 126.826,380.023 126.242 C 392.225 124.982,392.935 123.345,392.104 98.372 C 391.520 80.844,391.601 79.070,392.986 79.070 C 393.825 79.070,395.746 78.431,397.255 77.651 C 402.507 74.935,400.320 68.837,394.094 68.837 C 391.479 68.837,391.300 67.648,390.240 43.273 C 389.337 22.496,385.175 18.941,364.705 21.459 M63.752 22.446 C 59.144 23.525,55.816 26.563,55.807 29.697 C 55.791 35.655,42.749 79.070,40.975 79.070 C 40.086 79.070,34.422 66.892,30.374 56.279 C 25.451 43.369,17.562 25.659,16.396 24.898 C 14.462 23.636,6.972 24.154,4.760 25.703 C -0.091 29.100,-0.793 34.930,0.908 57.674 C 2.611 80.435,3.578 118.366,2.515 120.698 C 0.374 125.397,6.846 129.870,13.584 128.351 C 20.364 126.821,20.204 127.955,19.077 89.302 C 18.816 80.349,18.866 73.651,19.188 74.419 C 19.510 75.186,22.171 80.628,25.102 86.512 C 31.254 98.865,32.820 103.217,32.938 108.291 C 33.126 116.332,50.068 113.647,50.736 105.470 C 51.031 101.862,56.551 79.249,57.590 77.392 C 58.885 75.079,59.735 86.005,59.458 101.395 C 58.947 129.780,59.567 133.023,65.499 133.023 C 74.766 133.023,78.154 127.468,76.443 115.082 C 75.862 110.880,75.140 96.140,74.838 82.326 C 73.556 23.641,73.549 23.521,71.616 22.299 C 69.981 21.265,68.693 21.289,63.752 22.446 M370.665 30.116 C 373.354 32.805,373.763 35.694,374.258 55.497 C 374.701 73.223,376.915 71.294,356.619 70.865 L 342.540 70.567 341.919 60.167 C 340.694 39.683,344.994 30.545,356.662 28.833 C 365.693 27.509,368.297 27.747,370.665 30.116 M93.652 36.699 C 91.695 37.397,89.848 38.214,89.547 38.515 C 88.423 39.639,89.407 72.246,90.813 80.465 C 92.087 87.919,93.093 104.844,93.343 123.023 L 93.429 129.302 97.180 129.232 C 108.079 129.026,111.519 124.960,109.953 114.132 C 109.339 109.888,108.823 101.414,108.805 95.301 C 108.787 89.188,108.167 80.837,107.428 76.744 C 106.688 72.651,106.075 63.605,106.065 56.641 C 106.055 49.678,105.780 42.038,105.455 39.665 L 104.863 35.349 101.036 35.390 C 98.931 35.412,95.608 36.001,93.652 36.699 M67.442 148.879 C 50.304 149.544,43.053 150.634,24.008 155.412 C 18.026 156.912,12.036 158.140,10.697 158.140 C 9.358 158.140,8.499 158.523,8.789 158.991 C 9.811 160.645,23.576 161.043,98.605 161.587 C 269.213 162.823,324.117 162.172,349.302 158.615 C 369.013 155.831,374.030 155.287,374.919 155.835 C 375.411 156.140,375.814 155.632,375.814 154.706 C 375.814 153.611,375.082 152.987,373.721 152.921 C 372.570 152.865,361.791 151.650,349.767 150.222 C 328.032 147.640,327.780 147.632,305.581 148.790 C 267.457 150.780,213.011 151.003,159.070 149.388 C 107.536 147.846,95.736 147.781,67.442 148.879 " stroke="none" fill="#000000" fill-rule="evenodd"></path></g></svg>